<!-- Created with Inkscape (http://www.inkscape.org/) -->
<svg width="32" height="32" version="1.1" viewBox="0 0 8.47 8.47" xml:space="preserve" xmlns="http://www.w3.org/2000/svg"><defs><linearGradient id="linearGradient2" x1="4.29" x2=".821" y1=".3" y2="7.32" gradientTransform="translate(0 .529)" gradientUnits="userSpaceOnUse"><stop stop-color="#6adfdc" offset="0"/><stop stop-color="#014054" offset="1"/></linearGradient><linearGradient id="linearGradient20" x1="5.79" x2="2.69" y1="4.78" y2="5.68" gradientUnits="userSpaceOnUse"><stop stop-color="#fff" offset="0"/><stop stop-color="#39cbb6" offset="1"/></linearGradient><radialGradient id="radialGradient24" cx="3.04" cy="3.88" r="1.27" gradientTransform="matrix(.00875 2.17 -1.84 .00742 10.1 -2.47)" gradientUnits="userSpaceOnUse"><stop stop-color="#fff2e6" offset="0"/><stop stop-color="#00bcb8" offset="1"/></radialGradient><radialGradient id="radialGradient28" cx="3.13" cy="4.78" r="1.55" gradientTransform="matrix(2.34 .0433 -.0162 .876 -4.14 -.43)" gradientUnits="userSpaceOnUse"><stop stop-color="#f8f8f8" offset="0"/><stop stop-color="#81f4e6" offset="1"/></radialGradient><radialGradient id="radialGradient30" cx="3.89" cy="2.33" r=".434" gradientTransform="matrix(.46 1.87 -2.22 .548 7.28 -6.07)" gradientUnits="userSpaceOnUse"><stop stop-color="#fff" offset="0"/><stop stop-color="#73e1da" offset="1"/></radialGradient><radialGradient id="radialGradient35" cx="4.18" cy=".831" r=".62" gradientTransform="matrix(-.0296 -1.54 1.77 -.0342 3.51 8.35)" gradientUnits="userSpaceOnUse"><stop stop-color="#fff" offset="0"/><stop stop-color="#64ffec" offset="1"/></radialGradient><linearGradient id="linearGradient53" x1="3.56" x2="5.08" y1="2.33" y2="2.33" gradientUnits="userSpaceOnUse"><stop stop-opacity="0" offset=".0362"/><stop stop-color="#0fd7e5" stop-opacity=".785" offset=".241"/><stop stop-color="#20e7e6" stop-opacity=".392" offset=".75"/><stop stop-opacity="0" offset=".949"/></linearGradient></defs><path d="m0.79 4.15c9.97e-4 0.993 0.431 1.94 1.18 2.59-0.0174 0.253-0.0381 0.503-0.0977 0.703-0.0644 0.216-0.174 0.375-0.285 0.533 0.237-0.0254 0.474-0.0509 0.715-0.152 0.242-0.102 0.488-0.279 0.734-0.457 0.41 0.191 0.603 0.214 1.19 0.219 1.9 0 3.44-1.54 3.44-3.44s-1.54-3.44-3.44-3.44-3.44 1.54-3.44 3.44z" fill="url(#linearGradient2)"/><g fill="none" stroke="#fff" stroke-linecap="round" stroke-width=".132"><path transform="translate(0 .529)" d="m3.36 0.781c-0.608 0.189-1.15 0.58-1.53 1.09-0.374 0.515-0.576 1.15-0.568 1.79 0.0118 0.898 0.455 1.78 1.17 2.33"/><path d="m6.07 6.49s-0.598 0.535-1.56 0.628c-0.713 0.0694-1.36-0.205-1.36-0.205s-0.423 0.384-0.663 0.538c-0.133 0.0857-0.425 0.212-0.425 0.212s0.103-0.17 0.164-0.386c0.0614-0.216 0.0671-0.339 0.0671-0.339"/><path transform="translate(0 .529)" d="m5.32 0.856c0.532 0.211 1 0.579 1.33 1.05 0.331 0.467 0.524 1.03 0.548 1.6 0.0283 0.683-0.187 1.37-0.598 1.92"/></g><path d="m3.77 2.46v0.426l-1.19 1.06 0.136 1.81 0.723 0.666 1.78 0.00413 0.715-0.666 0.153-1.82-1.19-1.05v-0.413l0.132-0.00827 0.0785-0.136-0.0785-0.136-1.4-0.00827-0.0827 0.136 0.0785 0.141z" fill="url(#linearGradient20)"/><path d="m3.8 2.98-1.1 0.969 0.135 1.79 0.652 0.577 1.67-0.0248 0.577-0.519 0.168-1.83-1.06-0.964z" fill="#fff"/><path d="m3.55 5.98-0.0496 0.263 1.65-0.00413-0.0806-0.272" fill="#b8f1e2"/><path d="m5.72 5.74-0.579 0.499-0.0837-0.273 0.448-0.406" fill="#50cfc4"/><path d="m5.5 5.57 0.0805-1.37 0.282-0.00146-0.148 1.55" fill="#159197"/><path d="m3.55 5.98-0.427-0.4-0.211 0.137 0.585 0.522z" fill="#55cdc0"/><path d="m2.75 4.18 0.158 1.55 0.212-0.136-0.0827-1.4" fill="#59c5be"/><path d="m2.74 3.97 0.0134 0.22 0.28 0.00517 0.00413-0.225z" fill="#0e7272"/><path d="m5.6 3.97-0.0124 0.229 0.279-0.00103-0.00104-0.226z" fill="#074658"/><path d="m5.6 3.97-2.57-0.00413-0.00206 0.223 2.56 0.0114" fill="#118886"/><path d="m3.03 4.19 0.0935 1.4 0.427 0.398 1.51-0.0134 0.444-0.404 0.0894-1.37z" fill="url(#radialGradient24)"/><path d="m2.74 3.97 1.1-0.948 0.972 0.00644 1.04 0.947" fill="url(#radialGradient28)"/><path d="m3.89 2.48 0.0062 0.446 0.86-0.00206 0.00206-0.455" fill="url(#radialGradient30)"/><path d="m3.81 2.45-0.00317 0.537 1.05 0.00194 0.00234-0.542" fill="#fff"/><path d="m3.86 2.48-0.0128 0.544 0.968 0.00379 3.08e-4 -0.554" fill="url(#radialGradient30)"/><path d="m5.1 2.32-1.54-0.0142" fill="#fff"/><path d="m3.99 1.07-0.281 0.237v0.377l0.324 0.307h0.57l0.339-0.322 0.00585-0.342-0.316-0.257" fill="url(#radialGradient35)"/><path d="m4.05 1.15-0.228 0.186v0.296l0.264 0.241h0.464l0.276-0.252 0.00476-0.268-0.257-0.202" fill="#fff"/><path d="m4.13 1.34-0.255 0.00103 0.00189 0.307 0.253 0.00639" fill="#b0e9da"/><path d="m3.87 1.65 0.16 0.178 0.361 0.00121 0.159-0.189" fill="#1fa99f"/><path d="m4.39 1.83 0.159-0.186 0.209-0.00121-0.171 0.186z" fill="#7de7da"/><path d="m4.54 1.34 0.215-0.0031v0.307l-0.22 0.00278z" fill="#29b6a9"/><path d="m4.43 1.21 0.197 0.00138 0.127 0.131-0.213 0.00413z" fill="#2bbfb6"/><path d="m4.13 1.34 0.418-8.53e-4 -0.00207 0.299-0.422 0.00809z" fill="#73d6d2"/><path d="m4.44 1.2 0.112 0.145-0.681-0.0041 0.155-0.14z" fill="#fefff8"/><path d="m3.99 1.07-0.281 0.237v0.377l0.324 0.307h0.57l0.339-0.322 0.00585-0.342-0.316-0.257" fill="url(#radialGradient35)"/><path d="m4.05 1.15-0.228 0.186v0.296l0.264 0.241h0.464l0.251-0.224 0.0135-0.308-0.241-0.19" fill="#fff"/><path d="m4.13 1.34-0.255 0.00103 0.00189 0.307 0.253 0.00639" fill="#b0e9da"/><path d="m3.87 1.65 0.211 0.177 0.309 0.00267 0.159-0.189" fill="#1fa99f"/><path d="m4.39 1.83 0.159-0.186 0.209-0.00121-0.197 0.186z" fill="#7de7da"/><path d="m4.54 1.34 0.215-0.00164v0.305l-0.22 0.00278z" fill="#29b6a9"/><path d="m4.4 1.2 0.184-3e-3 0.165 0.138-0.213 0.00413z" fill="#2bbfb6"/><path d="m4.13 1.34 0.418-8.53e-4 -0.00207 0.299-0.422 0.00809z" fill="#73d6d2"/><path d="m4.41 1.21 0.139 0.141-0.681-0.0041 0.193-0.134z" fill="#fefff8"/><path d="m3.56 2.33h1.51" fill="#b0e9da" stroke="url(#linearGradient53)" stroke-width=".0307"/><g fill="none" stroke="#fff" stroke-linecap="round" stroke-width=".132"><path transform="translate(0 .529)" d="m3.36 0.781c-0.608 0.189-1.15 0.58-1.53 1.09-0.374 0.515-0.576 1.15-0.568 1.79 0.0118 0.898 0.455 1.78 1.17 2.33"/><path d="m6.07 6.49s-0.598 0.535-1.56 0.628c-0.713 0.0694-1.36-0.205-1.36-0.205s-0.423 0.384-0.663 0.538c-0.133 0.0857-0.425 0.212-0.425 0.212s0.103-0.17 0.164-0.386c0.0614-0.216 0.0671-0.339 0.0671-0.339"/><path transform="translate(0 .529)" d="m5.32 0.856c0.532 0.211 1 0.579 1.33 1.05 0.331 0.467 0.524 1.03 0.548 1.6 0.0283 0.683-0.187 1.37-0.598 1.92"/></g><path transform="scale(.265)" d="m17.6 8.92 4.1e-5 -0.453c0-0.0209-0.571-0.0288-1.7-0.0234l-1.7 0.00781-0.0078 0.508-0.0098 0.508h-1.39l-0.59-0.594h-0.596l-0.277-0.268c-0.263-0.255-0.275-0.273-0.256-0.373 0.0695-0.37-0.376-0.592-0.631-0.314-0.114 0.124-0.131 0.246-0.0547 0.393 0.0679 0.131 0.166 0.188 0.328 0.188 0.132 0 0.157 0.0126 0.314 0.174 0.0939 0.0959 0.235 0.23 0.314 0.297 0.142 0.12 0.149 0.123 0.453 0.139l0.309 0.0156 0.598 0.625h1.48v0.344h-1.61l-0.141-0.143c-0.0766-0.0787-0.225-0.212-0.33-0.297l-0.193-0.154h-0.598c-0.564 0-0.604-0.00302-0.689-0.0664-0.262-0.194-0.573 0.105-0.373 0.359 0.0816 0.104 0.262 0.113 0.381 0.0195 0.0727-0.0572 0.128-0.0625 0.639-0.0625 0.434 0 0.573 0.0101 0.623 0.0449 0.0351 0.0246 0.174 0.158 0.309 0.297l0.246 0.252h1.74v0.312h-2.26l-0.145-0.127c-0.0793-0.07-0.211-0.189-0.291-0.266-0.17-0.16-0.272-0.178-0.387-0.0625-0.0954 0.0954-0.1 0.244-0.0117 0.332 0.0505 0.0504 0.0979 0.0618 0.227 0.0566 0.159-0.0064 0.168-0.0013 0.32 0.158l0.154 0.162 2.39-0.0059v0.252l-1.49 0.0078c-2.2 0.0115-2.12 0.0132-2.2-0.0664-0.139-0.149-0.436-0.0392-0.436 0.16 0 0.183 0.298 0.326 0.406 0.195 0.0338-0.0407 0.282-0.0469 1.88-0.0469h1.84v0.119c0 0.114-0.0048 0.12-0.141 0.156-0.106 0.0284-0.997 0.0371-3.6 0.0371h-3.45l-0.0938-0.107c-0.119-0.135-0.24-0.164-0.389-0.0938-0.186 0.088-0.248 0.272-0.154 0.453 0.0849 0.164 0.348 0.208 0.504 0.084l0.0879-0.0703 6.25 0.0156-0.262 0.156c-0.144 0.0858-0.307 0.191-0.361 0.232l-0.0996 0.0762-1.64 0.0215c-1.64 0.0226-1.64 0.0223-1.77-0.0449-0.221-0.115-0.382-0.075-0.428 0.107-0.0247 0.0986 0.0579 0.225 0.164 0.252 0.0495 0.0124 0.122-1e-5 0.188-0.0312 0.0947-0.0451 0.287-0.0508 1.64-0.0508h1.53l-0.113 0.133c-0.378 0.441-0.552 0.803-0.66 1.38l-0.0176 0.0859h-1.52l-0.0391-0.0938c-0.118-0.284-0.597-0.285-0.723-2e-3l-0.043 0.0957-1.34 0.0039c-0.739 0.0021-1.36 0.0015-1.39-2e-3s-0.0814-0.0469-0.127-0.0957c-0.21-0.224-0.581-0.1-0.645 0.215-0.0367 0.184 0.166 0.41 0.367 0.41 0.132-1.47e-4 0.301-0.101 0.34-0.203l0.0293-0.078h2.78l0.0527 0.0801c0.0286 0.0436 0.114 0.108 0.189 0.145 0.134 0.065 0.14 0.0656 0.281 0.0117 0.0793-0.0303 0.174-0.0966 0.211-0.146l0.0664-0.0898h1.51l0.0176 0.0859c9e-3 0.0473 0.0246 0.144 0.0352 0.215l0.0195 0.127-0.625 0.0176-0.625 0.0156-0.266 0.227h-2.81l-0.0664-0.084c-0.0951-0.119-0.274-0.118-0.377 2e-3 -0.0908 0.106-0.0954 0.205-0.0117 0.295 0.0838 0.09 0.204 0.116 0.307 0.0684 0.0632-0.0293 0.441-0.0379 1.54-0.0352l1.46 0.00386 0.18-0.123c0.121-0.082 0.208-0.12 0.262-0.113 0.0446 0.0054 0.322 0.0117 0.615 0.0137l0.531 0.0039 0.082 0.166 0.082 0.168-0.281 0.238-0.281 0.24h-0.676l-0.154 0.133c-0.0849 0.073-0.262 0.228-0.391 0.344s-0.244 0.211-0.256 0.211-0.258-0.188-0.547-0.418-0.554-0.434-0.59-0.453c-0.044-0.0236-0.427-0.0352-1.2-0.0352h-1.13l-0.121-0.109c-0.138-0.124-0.26-0.142-0.404-0.0566-0.182 0.108-0.237 0.399-0.102 0.549 0.0743 0.0821 0.208 0.149 0.297 0.148 0.101-1.64e-4 0.27-0.11 0.313-0.203l0.0352-0.0781h2.2l0.168 0.133c0.0925 0.0726 0.335 0.266 0.539 0.43s0.405 0.322 0.445 0.354c0.0411 0.0318 0.0992 0.0491 0.131 0.0391 0.0311-0.0099 0.231-0.18 0.445-0.377l0.389-0.357 0.346-2e-3h0.348l0.613-0.512 0.176 0.199-0.271 0.26c-0.15 0.143-0.344 0.323-0.43 0.4-0.0859 0.0773-0.342 0.312-0.57 0.521l-0.416 0.381h-1.75c-1.7 0-1.75-0.0017-1.83-0.0625-0.171-0.134-0.383-0.0222-0.383 0.203 0 0.169 0.219 0.266 0.361 0.158 0.0517-0.0391 0.33-0.046 1.88-0.0469l1.82-2e-3 0.289-0.262c0.159-0.144 0.556-0.508 0.883-0.809l0.594-0.547 0.18 0.141c0.0988 0.0776 0.18 0.151 0.18 0.162 0 0.0226-1.25 1.21-1.68 1.6l-0.275 0.246-1.87 2e-3c-1.82 6.3e-4 -1.87-0.0016-1.95-0.0625-0.251-0.197-0.559 0.133-0.334 0.357 0.0912 0.0912 0.217 0.104 0.32 0.0312 0.0616-0.0431 0.302-0.0498 1.98-0.0547l1.91-0.0059 0.0957-0.0781c0.139-0.112 1.11-1.01 1.61-1.49l0.422-0.406 0.0957 0.0625 0.0977 0.0644-0.0703 0.158c-0.0393 0.0869-0.0804 0.209-0.0918 0.271-0.022 0.121-0.191 0.298-0.984 1.03-0.197 0.182-0.583 0.537-0.855 0.789l-0.496 0.459h-2.03l-0.119-0.125c-0.105-0.11-0.135-0.125-0.262-0.125-0.365 0-0.519 0.434-0.238 0.67 0.0703 0.0592 0.131 0.0801 0.236 0.0801 0.12 0 0.157-0.0162 0.248-0.107l0.109-0.107 0.498-0.0098c0.274-0.0051 0.498 6.12e-4 0.498 0.0137-2.3e-5 0.0131-0.0311 0.0482-0.0684 0.0781-0.0771 0.0619-0.595 0.511-0.619 0.537-0.00859 0.0093-0.0961 0.0844-0.193 0.166l-0.176 0.148h-0.5c-0.479 0-0.502-0.0026-0.521-0.0644-0.0262-0.0826-0.194-0.185-0.303-0.186-0.291-4.05e-4 -0.475 0.327-0.305 0.543 0.156 0.198 0.383 0.22 0.545 0.0508l0.0898-0.0938h0.537c0.506 0 0.542-0.0033 0.627-0.0684 0.0842-0.0646 0.347-0.294 1-0.875l0.273-0.242h0.35l0.348-2e-3 0.152-0.121c0.142-0.113 0.408-0.359 1.81-1.67l0.562-0.523 0.0332-0.221c0.0187-0.121 0.0578-0.246 0.0859-0.277 0.0492-0.0544 0.0585-0.052 0.24 0.0273l0.188 0.082-0.0391 0.531-0.227 0.219c-0.124 0.12-0.534 0.5-0.912 0.844s-0.793 0.723-0.922 0.844c-0.418 0.392-0.949 0.882-1.94 1.79-0.0797 0.0728-0.0836 0.0729-0.191 0.0215-0.152-0.0724-0.315-0.0393-0.404 0.082l-0.0684 0.0919h-0.357c-0.335 0-0.362-0.0048-0.449-0.0781-0.106-0.0891-0.18-0.0968-0.303-0.0332-0.173 0.0895-0.196 0.334-0.043 0.455 0.113 0.0888 0.238 0.0788 0.363-0.0312 0.105-0.092 0.113-0.0938 0.449-0.0938 0.301 0 0.348 0.0067 0.396 0.0606 0.0722 0.0798 0.248 0.137 0.338 0.109 0.0841-0.0254 0.242-0.167 0.242-0.217 0-0.0193 0.0426-0.0682 0.0957-0.107 0.106-0.0781 0.455-0.392 1.34-1.21 0.317-0.292 0.684-0.63 0.816-0.75 0.446-0.405 1.58-1.45 1.81-1.66l0.227-0.213v-0.172c1.9e-4 -0.0943 0.0092-0.222 0.0195-0.285l0.0195-0.115 0.32 0.109 0.0078 0.469 0.0098 0.469-1.12 1.08c-0.615 0.594-1.26 1.23-1.44 1.41l-0.324 0.332 0.0215 0.271c0.0122 0.15 0.0123 0.733 0 1.3l-0.0235 1.03h-0.586c-0.561 0-0.588-0.0025-0.607-0.0625-0.0232-0.0732-0.169-0.156-0.273-0.156-0.0761 0-0.199 0.072-0.264 0.154-0.0469 0.0595-0.0531 0.235-0.00977 0.316 0.0894 0.167 0.363 0.19 0.502 0.043l0.0742-0.0801 0.598 0.0215c0.328 0.0119 0.648 0.0138 0.711 2e-3l0.115-0.0215v-2.71l0.711-0.703c0.391-0.387 1.03-1.02 1.42-1.4l0.711-0.697v-0.496c0-0.562-0.0282-0.519 0.299-0.463 0.102 0.0175 0.231 0.0397 0.287 0.0488l0.102 0.0156v0.311c0 0.363 0.0426 0.297-0.531 0.816-0.215 0.194-0.399 0.383-0.41 0.418s-0.0217 1.74-0.0234 3.79l-0.0039 3.72 0.0859 0.0137c0.0473 0.0072 0.104 0.015 0.125 0.0176 0.0311 0.0037 0.0391-0.759 0.0391-3.72v-3.72l0.256-0.242c0.141-0.132 0.359-0.339 0.484-0.461l0.229-0.221v-0.689l0.586-0.0195c0.322-0.011 0.705-0.0427 0.852-0.0684s0.276-0.0465 0.289-0.0469c0.0129-3.44e-4 0.0234 0.281 0.0234 0.623v0.621l0.891 0.91 0.891 0.912v2.25c0 1.24 0.0093 2.27 0.0195 2.29 0.0123 0.0321-0.0084 0.0611-0.0586 0.084-0.166 0.0758-0.233 0.366-0.131 0.564 0.0588 0.114 0.218 0.215 0.336 0.215 0.129 1.73e-4 0.327-0.112 0.381-0.217 0.0962-0.186 0.0404-0.434-0.125-0.555l-0.082-0.0586 0.0039-2.35 2e-3 -2.35-1.81-1.84v-1.18l0.121-0.0352c0.0664-0.0199 0.129-0.0371 0.141-0.0371s0.0186 0.245 0.0137 0.545l-0.0098 0.547 2.1 2.12v1.42l-0.0801 0.0527c-0.228 0.15-0.219 0.574 0.0156 0.699 0.0622 0.0333 0.0644 0.0587 0.0644 0.838v0.805l0.295 0.293c0.182 0.181 0.305 0.329 0.316 0.383 0.0467 0.213 0.312 0.281 0.467 0.119 0.184-0.192 0.0698-0.469-0.193-0.469-0.0986 0-0.137-0.0281-0.34-0.242l-0.23-0.242v-0.721l-2e-3 -0.721 0.107-0.104c0.186-0.18 0.186-0.425 0-0.611l-0.107-0.107v-1.57l-1.06-1.05-1.06-1.06v-0.514l2e-3 -0.514 0.723-0.34 0.232 0.236 0.23 0.236v0.689l1.04 1.01c0.571 0.556 1.16 1.13 1.3 1.27l0.266 0.258 2.67-0.0156 0.785-0.779c0.431-0.429 0.804-0.792 0.83-0.807 0.0325-0.0182 0.0469-0.0778 0.0469-0.193 0-0.11 0.0159-0.179 0.0469-0.205 0.0759-0.063 0.058-0.206-0.0352-0.279-0.099-0.0779-0.192-0.0819-0.289-0.0137-0.0609 0.0427-0.069 0.071-0.0566 0.18 0.0081 0.071 0.0255 0.163 0.0391 0.205 0.0223 0.0692-0.0455 0.143-0.723 0.805l-0.744 0.728h-2.46l-0.334-0.318c-0.184-0.175-0.617-0.594-0.961-0.932-0.344-0.337-0.727-0.711-0.852-0.83l-0.227-0.217v-0.68l-0.533-0.545 0.111-0.0859 0.111-0.084 0.143 0.125c0.0787 0.0692 0.227 0.217 0.328 0.328l0.184 0.201 2e-3 0.338c6.3e-4 0.217 0.0147 0.357 0.0391 0.389 0.0873 0.114 0.158 0.123 1.04 0.123h0.867l0.363 0.355c0.199 0.195 0.394 0.376 0.434 0.402s0.0962 0.0947 0.125 0.152c0.0345 0.069 0.103 0.131 0.201 0.18 0.187 0.093 0.328 0.0728 0.484-0.0703 0.0968-0.0887 0.112-0.126 0.125-0.277 0.014-0.169 0.011-0.179-0.111-0.311-0.117-0.126-0.138-0.135-0.283-0.133-0.118 0.0017-0.181 0.0231-0.264 0.0859l-0.109 0.082-0.389-0.371c-0.214-0.204-0.416-0.383-0.449-0.4-0.0357-0.0185-0.392-0.0288-0.893-0.0254-0.689 0.0047-0.838-0.0011-0.852-0.0371-0.0092-0.024-0.0176-0.188-0.0176-0.365v-0.322l-0.344-0.33c-0.189-0.182-0.342-0.342-0.342-0.355 6.46e-4 -0.0137 0.0486-0.0816 0.107-0.15l0.107-0.125 0.148 0.145c0.351 0.34 0.262 0.309 0.871 0.309h0.539l0.385 0.367c0.212 0.202 0.511 0.483 0.662 0.625l0.275 0.258h1.64c1.61 0 1.65 0.0015 1.78 0.0664 0.234 0.113 0.465 0.0321 0.582-0.203 0.15-0.303-0.154-0.653-0.482-0.555-0.13 0.039-0.279 0.193-0.279 0.287 0 0.0585-0.0409 0.0606-1.55 0.0606h-1.55l-0.174-0.148c-0.096-0.0816-0.394-0.363-0.664-0.625l-0.49-0.477h-1.08l-0.205-0.203-0.205-0.205 0.0938-0.199 0.0918-0.201 0.311 0.26 2.61-0.0196 0.316 0.303c0.337 0.324 0.402 0.358 0.703 0.359 0.134 6.56e-4 0.17 0.0151 0.289 0.125l0.135 0.125h1.41l0.0938 0.0781c0.23 0.193 0.588 0.0162 0.588-0.291 0-0.369-0.498-0.47-0.684-0.139-0.0274 0.0491-0.0967 0.055-0.623 0.0644l-0.592 0.0117-0.16-0.145c-0.161-0.143-0.163-0.143-0.391-0.143-0.215 0-0.235-6e-3 -0.336-0.102-0.0591-0.0559-0.218-0.204-0.352-0.328l-0.242-0.227-1.32-2e-3c-0.993-7.4e-4 -1.33-0.0101-1.37-0.0391-0.0277-0.0211-0.106-0.0894-0.176-0.152-0.118-0.106-0.127-0.124-0.111-0.242l0.0176-0.127h0.498c0.479 0 0.503 0.0029 0.613 0.0781 0.161 0.109 0.271 0.102 0.4-0.0273 0.135-0.135 0.142-0.269 0.0234-0.379-0.0449-0.0416-0.109-0.0849-0.143-0.0957-0.0942-0.0299-0.26 0.0109-0.322 0.0801-0.0515 0.0569-0.0976 0.0625-0.566 0.0625h-0.51l-0.0195-0.0859c-0.0106-0.0473-0.0315-0.135-0.0469-0.195-0.0154-0.0602-0.0292-0.12-0.0293-0.133-9.6e-5 -0.0129 0.539-0.0234 1.2-0.0234h1.2l0.244 0.227c0.135 0.124 0.407 0.378 0.604 0.562l0.357 0.336h0.912c0.79 0 0.918 0.0065 0.953 0.0488 0.105 0.126 0.314 0.171 0.488 0.105 0.388-0.147 0.349-0.647-0.0606-0.777-0.161-0.0513-0.305-3.05e-4 -0.439 0.156l-0.105 0.123h-1.62l-0.359-0.336c-0.198-0.185-0.469-0.438-0.604-0.562l-0.244-0.227h-1.33l-1.33-0.00195-0.146-0.232-0.146-0.234h0.662c4.11-0.0053 5.71-0.0011 5.77 0.0156 0.0936 0.0235 0.23-0.0705 0.258-0.176 0.0264-0.101-0.144-0.263-0.238-0.227-0.0381 0.0146-1.58 0.0295-3.43 0.0332-3.12 0.0062-3.36 0.0026-3.42-0.0469-0.0371-0.0293-0.156-0.12-0.264-0.201l-0.197-0.148 0.809-2e-3c0.748-0.0017 2.78-0.0213 2.83-0.0273 0.0137-0.0014 0.184-0.149 0.379-0.328l0.354-0.326 1.11-0.0118 0.145 0.141c0.144 0.14 0.148 0.141 0.398 0.154 0.245 0.013 0.256 0.0176 0.359 0.131 0.0801 0.0874 0.14 0.122 0.236 0.135 0.263 0.0352 0.48-0.156 0.48-0.422 2.22e-4 -0.255-0.162-0.412-0.424-0.412-0.134 0-0.313 0.1-0.342 0.189-0.0163 0.0512-0.0492 0.0606-0.203 0.0606-0.176 0-0.189-6e-3 -0.354-0.156l-0.17-0.156h-1.35l-0.262 0.242c-0.143 0.133-0.309 0.288-0.369 0.344l-0.109 0.102h-4.12l-0.305-0.0996c-0.288-0.0954-0.305-0.107-0.305-0.189v-0.0859h0.979c0.539 0 1.49-0.0101 2.11-0.0215l1.13-0.0195 0.916-0.865h0.402l0.598-0.57c0.328-0.313 0.636-0.586 0.684-0.605 0.222-0.0935 0.134-0.449-0.111-0.449-0.0893 0-0.189 0.094-0.217 0.203-0.0187 0.0744-0.532 0.598-0.914 0.934-0.159 0.139-0.171 0.145-0.359 0.145h-0.195l-0.93 0.875h-4.08v-0.217l1.32-0.0098 1.32-0.0078 0.25-0.25c0.236-0.235 1.69-1.62 1.95-1.86 0.107-0.0981 0.132-0.107 0.328-0.109 0.209-0.00302 0.216-0.00542 0.34-0.139 0.121-0.13 0.127-0.144 0.113-0.307-0.0159-0.192-0.0975-0.303-0.271-0.377-0.257-0.109-0.566 0.115-0.566 0.41 0 0.0854-0.0267 0.134-0.119 0.227-0.122 0.122-1.7 1.62-2.01 1.91l-0.174 0.16-2.48 0.0059v-0.596h2.14l0.52-0.484 0.0137-0.312 0.0156-0.312 0.568-0.555 0.568-0.553 0.193-0.00195c0.163-5.67e-4 0.208-0.0124 0.293-0.084 0.316-0.265 0.165-0.729-0.236-0.729-0.237 0-0.422 0.171-0.422 0.391 0 0.132-4e-3 0.139-0.641 0.756l-0.643 0.619-0.0117 0.309-0.0098 0.307-0.305 0.273h-1.02l-1.02 0.00195v-0.312c1.09 0.108 0.938-0.332 4.5e-5 -0.391zm-6.48-2.64c-0.0969 0.0037-0.194 0.0492-0.232 0.127-0.0152 0.0304-0.0272 0.1-0.0273 0.156-4.21e-4 0.132 0.0533 0.202 0.197 0.254 0.0609 0.0219 0.111 0.0533 0.111 0.0684 0 0.0346 0.0683 0.0558 0.16 0.0508 0.0392-0.00214 0.186-0.00318 0.326-0.00195l0.256 0.00391 0.0918 0.082c0.0504 0.0456 0.181 0.163 0.291 0.26 0.195 0.173 0.198 0.178 0.199 0.275 0.0011 0.102 0.0475 0.195 0.125 0.254 0.0494 0.0374 0.214 0.0447 0.275 0.0117 0.101-0.0538 0.138-0.233 0.0742-0.355-0.0342-0.0662-0.145-0.131-0.227-0.131-0.0235 0-0.165-0.122-0.326-0.279-0.157-0.153-0.315-0.297-0.352-0.32-0.0567-0.0356-0.112-0.0409-0.377-0.041h-0.309v-0.143c3.7e-4 -0.125-0.0076-0.15-0.0586-0.201-0.0499-0.0499-0.124-0.0732-0.199-0.0703zm-1 0.83c-0.0502 0.00515-0.0994 0.0329-0.143 0.082-0.0378 0.0431-0.0684 0.102-0.0684 0.133 0 0.07 0.0548 0.178 0.105 0.207 0.0213 0.0124 0.0765 0.0231 0.123 0.0234 0.194 0.00154 0.288-0.238 0.148-0.377-0.0513-0.0513-0.109-0.0742-0.166-0.0684zm-1.04 0.645c-0.167 0.0134-0.273 0.231-0.17 0.361 0.0271 0.0344 0.07 0.0717 0.0957 0.082 0.0669 0.027 0.0952 0.0255 0.18-0.00977 0.0839-0.0351 0.145-0.132 0.145-0.23 0-0.091-0.128-0.203-0.232-0.203-0.00549 0-0.0122-4.32e-4 -0.0176 0zm11 0c-0.0602 0.00295-0.0912 0.017-0.129 0.0547-0.0473 0.0473-0.0545 0.0735-0.0488 0.172 6e-3 0.103 0.0129 0.121 0.0801 0.166 0.0876 0.0589 0.112 0.061 0.211 0.0195 0.155-0.0648 0.191-0.218 0.0801-0.34-0.0552-0.0605-0.0797-0.0723-0.166-0.0723-0.0099 0-0.0187-4.21e-4 -0.0273 0zm-10.7 1.06c-0.203 0.00918-0.329 0.16-0.309 0.375 0.0119 0.124 0.0713 0.208 0.184 0.258 0.229 0.102 0.475-0.0594 0.475-0.311-1.51e-4 -0.207-0.118-0.322-0.33-0.322-0.00673 0-0.013-2.96e-4 -0.0195 0zm14.2 0.0254c-0.0325 0.00493-0.0653 0.0243-0.0957 0.0547-0.046 0.046-0.0543 0.0699-0.043 0.127 0.0077 0.0387 0.0211 0.0727 0.0312 0.0762s0.0376 0.0197 0.0606 0.0371 0.0453 0.0328 0.0488 0.0332c0.0135 0.0015 0.127-0.0763 0.143-0.0977 0.0309-0.0431 0.0175-0.137-0.0273-0.186-0.0337-0.0362-0.0754-0.0513-0.117-0.0449zm-15.9 0.416c-0.0922 0-0.116 0.0111-0.18 0.0781-0.13 0.138-0.117 0.268 0.0391 0.398 0.0599 0.0504 0.086 0.0576 0.164 0.0488 0.0513-0.00578 0.121-0.0307 0.154-0.0566 0.0514-0.0404 0.0887-0.0488 0.266-0.0488h0.205l0.131 0.117c0.402 0.36 0.623 0.581 0.635 0.637 0.0149 0.0676 0.0822 0.14 0.164 0.174 0.0304 0.0127 0.0959 0.0181 0.145 0.0117 0.237-0.031 0.316-0.351 0.117-0.477-0.0598-0.0377-0.0967-0.0427-0.209-0.0332l-0.137 0.0117-0.141-0.127c-0.0779-0.0693-0.223-0.205-0.322-0.301-0.0995-0.0961-0.2-0.187-0.223-0.203-0.0269-0.0188-0.13-0.0328-0.285-0.0371l-0.24-0.00586-0.0898-0.0938c-0.08-0.0841-0.0978-0.0938-0.193-0.0937zm14.9 0.111c-0.0658 0.0049-0.123 0.0552-0.48 0.404-0.581 0.567-0.671 0.649-0.742 0.666-0.0746 0.0179-0.166 0.108-0.186 0.186-0.0172 0.0687 0.03 0.16 0.104 0.197 0.103 0.0522 0.166 0.0234 0.338-0.15 0.0539-0.0546 0.22-0.212 0.371-0.352s0.325-0.302 0.387-0.359c0.104-0.0964 0.122-0.105 0.225-0.105 0.102 0 0.118-0.00697 0.191-0.0879 0.0886-0.0981 0.0995-0.17 0.043-0.266-0.0481-0.0815-0.141-0.133-0.238-0.133-0.0046 0-0.0073-3.26e-4 -0.0117 0zm2.5 0.465c-0.0354 0.00368-0.0758 0.0166-0.0938 0.0371-0.082 0.094-0.0858 0.131-0.0254 0.203 0.0679 0.0807 0.164 0.0903 0.23 0.0234 0.0648-0.0648 0.055-0.221-0.0137-0.221-0.0169 0-0.0312-0.00933-0.0312-0.0215 0-0.0187-0.031-0.0252-0.0664-0.0215zm-0.752 0.0898c-0.0306 0.00383-0.0609 0.0191-0.102 0.0469-0.13 0.0892-0.153 0.252-0.0488 0.363 0.07 0.0746 0.234 0.0719 0.326-0.0059 0.0583-0.049 0.0684-0.0724 0.0684-0.162 0-0.109-0.037-0.161-0.148-0.219-0.0355-0.0183-0.0651-0.0273-0.0957-0.0234zm0.555 0.752c-0.0273 0.0037-0.054 0.0186-0.082 0.0449-0.0723 0.0679-0.0702 0.178 0.0059 0.238 0.0749 0.0589 0.122 0.0579 0.18-0.0039 0.0734-0.0791 0.0744-0.169 2e-3 -0.236-0.0351-0.0327-0.0704-0.0477-0.105-0.043zm-17.3 0.0859c-0.0565 0.0026-0.0817 0.0192-0.123 0.0684-0.08 0.0951-0.0768 0.202 0.00781 0.287 0.0855 0.0855 0.193 0.086 0.291 0.0039 0.0649-0.0546 0.068-0.0666 0.0586-0.164-0.0129-0.134-0.0757-0.194-0.207-0.195-0.0095-7.6e-5 -0.0193-3.7e-4 -0.0273 0zm16.3 1.12c-0.0805-6.03e-4 -0.16 0.0384-0.203 0.111-0.0679 0.115-0.0341 0.234 0.0859 0.307 0.0247 0.0151 0.0871 0.0229 0.143 0.0176 0.132-0.0126 0.199-0.0883 0.199-0.223 0-0.0803-0.0116-0.107-0.0684-0.154-0.0461-0.0388-0.101-0.0582-0.156-0.0586zm-12.9 1.22c-0.0537 0-0.165 0.0559-0.227 0.113-0.0431 0.0402-0.102 0.041-1.47 0.041h-1.43l-0.0449-0.0566c-0.0579-0.0725-0.194-0.105-0.299-0.0723-0.0984 0.031-0.125 0.0517-0.166 0.135-0.0678 0.136-0.0234 0.292 0.105 0.371 0.122 0.0744 0.246 0.0529 0.363-0.0644l0.0684-0.0684h2.82l0.0723 0.0527c0.202 0.149 0.443 0.0578 0.443-0.168 0-0.163-0.103-0.283-0.244-0.283zm-4.93 0.0273c-0.0276 3e-3 -0.0545 0.0111-0.0781 0.0234-0.0834 0.0434-0.154 0.123-0.17 0.191-0.0282 0.121 0.036 0.258 0.154 0.33 0.0226 0.0138 0.0936 0.022 0.158 0.0176 0.0915-0.0063 0.13-0.0221 0.176-0.0684 0.052-0.052 0.0605-0.075 0.0605-0.199 0-0.126-0.00736-0.149-0.0645-0.209-0.06-0.0626-0.153-0.095-0.236-0.0859zm20.1 0.221c-0.0288 0.0014-0.0579 0.0066-0.0879 0.0156-0.0489 0.0146-0.111 0.0506-0.139 0.0801l-0.0488 0.0547h-0.998c-0.683 0-1.03-8e-3 -1.09-0.0254-0.132-0.0353-0.215-0.0064-0.266 0.0957-0.0368 0.0743-0.0381 0.0861-0.0059 0.148 0.0441 0.0853 0.179 0.149 0.229 0.107 0.0255-0.0212 0.277-0.03 1.06-0.0352 0.96-0.0063 1.03-0.0041 1.08 0.0332 0.031 0.0219 0.0872 0.0612 0.125 0.0879 0.0903 0.0637 0.195 0.0645 0.297 0 0.108-0.068 0.137-0.107 0.158-0.203 0.0458-0.203-0.113-0.369-0.314-0.359zm-1.78 0.703c-0.103 0.0132-0.151 0.122-0.0859 0.215 0.068 0.0972 0.254 0.0413 0.254-0.0762 0-0.0782-0.0664-0.139-0.148-0.139-0.0074 0-0.0126-8.8e-4 -0.0195 0zm-2.02 0.354c-0.043 0.0053-0.0865 0.0291-0.117 0.0703l-0.0449 0.0606 0.0449 0.0606c0.0247 0.0331 0.0703 0.0665 0.0996 0.0742 0.118 0.0312 0.211-0.107 0.143-0.211-0.0279-0.0426-0.0762-0.0607-0.125-0.0547zm2.51 0.904c-0.0955 0.0108-0.176 0.129-0.0977 0.229 0.0515 0.0655 0.14 0.0784 0.207 0.0293 0.0532-0.0389 0.0548-0.155 2e-3 -0.213-0.033-0.0365-0.0739-0.0492-0.111-0.0449zm-2.77 0.496c-0.0174 5.53e-4 -0.0349 5e-3 -0.0527 0.0117-0.0943 0.0359-0.136 0.119-0.113 0.227 0.0167 0.078 0.0339 0.0997 0.115 0.141 0.0525 0.0264 0.163 0.112 0.244 0.189s0.205 0.195 0.275 0.262l0.127 0.121 0.275 0.0117c0.26 0.0105 0.277 0.0138 0.336 0.0703 0.0342 0.0327 0.0868 0.07 0.117 0.082 0.0852 0.0339 0.149 0.0289 0.244-0.0195 0.228-0.116 0.226-0.389-2e-3 -0.514-0.097-0.053-0.223-0.0402-0.318 0.0312-0.0566 0.0425-0.1 0.0523-0.258 0.0586l-0.191 0.0078-0.15-0.131c-0.0837-0.0721-0.234-0.218-0.334-0.324-0.158-0.167-0.239-0.227-0.314-0.225zm0.889 0.0137c-0.0586 0.0092-0.139 0.0835-0.139 0.133 0 0.0211 0.031 0.0642 0.0684 0.0957s0.0804 0.0586 0.0977 0.0586c0.0502 0 0.121-0.0843 0.121-0.145 0-0.0681-0.0719-0.143-0.137-0.143-0.0037 0-0.0078-6.13e-4 -0.0117 0zm-13.2 0.154c-0.0318 0.0031-0.0619 0.021-0.084 0.0547-0.0471 0.0719-0.0457 0.112 0.00781 0.166 0.0243 0.0243 0.0624 0.0449 0.084 0.0449 0.0624 0 0.137-0.0656 0.137-0.119 0-0.0937-0.0747-0.153-0.145-0.146zm11.2 0.688c-0.0158 6.29e-4 -0.0326 0.0044-0.0508 0.0078-0.0876 0.0164-0.186 0.13-0.186 0.215 0 0.0889 0.0633 0.194 0.139 0.227 0.0925 0.0406 0.136 0.0416 0.213 2e-3 0.148-0.0765 0.182-0.255 0.0684-0.365-0.0652-0.0637-0.115-0.0887-0.184-0.0859zm-15 0.107c-0.114-0.0034-0.234 0.0612-0.279 0.17-0.0582 0.139-0.0362 0.239 0.0742 0.332 0.0434 0.0367 0.0873 0.0507 0.168 0.0508 0.101 1e-4 0.116-0.0079 0.201-0.0996l0.0918-0.0996 2.73-0.0118v-0.221l-1.39-0.0098-1.39-0.0117-0.0625-0.0488c-0.0406-0.0319-0.091-0.0492-0.143-0.0508zm12.6 0.287c-0.181 0-0.259 0.193-0.141 0.354 0.0526 0.0713 0.0566 0.0904 0.0566 0.379v0.303l0.203 0.207c0.325 0.328 1.18 1.16 1.67 1.63 0.249 0.237 0.6 0.575 0.783 0.752s0.406 0.389 0.494 0.473l0.16 0.152 1.43-0.0176c0.787-0.0098 1.47-0.0175 1.51-0.0176s0.117 0.0151 0.166 0.0352c0.153 0.0628 0.311 0.0235 0.461-0.115 0.0893-0.0824 0.125-0.161 0.125-0.277 0-0.311-0.329-0.514-0.594-0.365-0.104 0.0585-0.178 0.163-0.213 0.297l-0.0234 0.0898-0.396 0.0137c-0.218 0.0076-0.828 0.0141-1.35 0.0156l-0.957 0.0039-0.082-0.0723c-0.104-0.0905-0.359-0.335-1.29-1.23-1.29-1.25-1.42-1.38-1.66-1.63l-0.148-0.156v-0.219c0-0.12 0.0102-0.249 0.0234-0.287 0.0525-0.151-0.065-0.314-0.227-0.314zm6.43 0.93c-0.275 0.0092-0.515 0.321-0.328 0.635 0.0384 0.0643 0.0684 0.122 0.0684 0.129s-0.13 0.14-0.291 0.297l-0.293 0.285h-1.97l-0.0664-0.0488c-0.0765-0.0564-0.958-0.899-1.04-0.998-0.139-0.159-0.152-0.168-0.25-0.168-0.168 0-0.243 0.103-0.191 0.258 0.0195 0.059 0.0469 0.0867 0.127 0.123 0.0715 0.0325 0.228 0.169 0.512 0.447 0.225 0.22 0.486 0.472 0.58 0.559l0.17 0.156 0.939 0.0039c0.517 0.0014 1.03-0.0053 1.14-0.0137l0.205-0.0156 0.412-0.406c0.227-0.224 0.447-0.431 0.488-0.459s0.0996-0.0895 0.131-0.137c0.117-0.177 0.107-0.347-0.0273-0.5-0.0942-0.107-0.207-0.15-0.314-0.146zm-18.3 1.55c-0.0354 0.0049-0.071 0.0261-0.109 0.0644-0.114 0.114-0.0798 0.282 0.0664 0.338 0.102 0.0389 0.265-0.0804 0.264-0.193-7.78e-4 -0.0749-0.0276-0.117-0.109-0.174-0.04-0.0275-0.0759-0.04-0.111-0.0352zm10.2 0.0195c-0.0444 4e-3 -0.0487 0.0191-0.0586 0.0684-0.0076 0.038-0.0153 0.125-0.0156 0.193-5.8e-4 0.121-0.0035 0.126-0.0879 0.178-0.203 0.125-0.207 0.428-0.0098 0.59l0.0977 0.0801v2.99c0 2.72 0.0034 2.99 0.0352 2.98 0.0192-0.0074 0.0791-0.0137 0.133-0.0137h0.0977v-5.95l0.0508-0.043c0.0273-0.0228 0.0602-0.0406 0.0742-0.041s0.0524-0.0458 0.084-0.0996c0.043-0.0734 0.0566-0.127 0.0566-0.219 0-0.117-0.0043-0.127-0.111-0.234-0.0613-0.0614-0.121-0.111-0.133-0.111-0.0116 0-0.0215-0.0538-0.0215-0.119 0-0.0653-0.0061-0.15-0.0137-0.188-0.0131-0.0658-0.0193-0.0684-0.119-0.0684-0.025 0-0.0438-0.0013-0.0586 0zm8.88 0.188c-0.0274 0.0013-0.0548 0.0118-0.082 0.0332-0.0787 0.0619-0.0804 0.157-2e-3 0.219 0.0716 0.0563 0.0997 0.058 0.164 0.0059 0.0334-0.0271 0.0508-0.0643 0.0508-0.111 0-0.0909-0.0609-0.15-0.131-0.146zm-10.7 0.0156c-0.0281 1e-3 -0.056 0.0136-0.113 0.0371-0.165 0.0674-0.238 0.174-0.238 0.348 0 0.102 0.0109 0.148 0.0547 0.213l0.0566 0.082 0.0039 3.08 0.0059 3.08 0.0762 0.0137h2e-3c0.0425 0.0075 0.094 0.016 0.115 0.0176 0.0367 0.0028 0.0389-0.154 0.041-2.94 0.0012-1.62 0.0077-3 0.0156-3.06 0.0137-0.115 0.018-0.12 0.0918-0.139 0.0425-0.0108 0.106-0.0476 0.141-0.0801 0.216-0.203 0.145-0.499-0.145-0.609-0.0513-0.0195-0.0793-0.0303-0.107-0.0293zm-1.7 0.322c-0.106 0-0.123 0.0075-0.205 0.0898-0.0814 0.0814-0.0898 0.101-0.0898 0.201 0 0.0858 0.011 0.122 0.0508 0.164l0.0527 0.0547-0.0644 0.0801c-0.0351 0.0432-0.108 0.125-0.162 0.182s-0.138 0.148-0.186 0.203c-0.0478 0.0554-0.223 0.244-0.389 0.418l-0.299 0.316-0.0137 0.213c-0.0077 0.118-0.0162 0.667-0.0176 1.22l-2e-3 1.01-0.0508 0.0664c-0.0274 0.0368-0.11 0.128-0.184 0.203-0.132 0.134-0.137 0.137-0.256 0.137-0.104 0-0.129 0.0085-0.178 0.0606-0.134 0.143-0.139 0.234-0.0215 0.357 0.071 0.0747 0.0998 0.0899 0.172 0.0898 0.122-1.16e-4 0.214-0.0653 0.273-0.191 0.0304-0.0643 0.129-0.185 0.246-0.303 0.107-0.107 0.197-0.202 0.197-0.211s0.0187-0.0346 0.043-0.0566c0.0432-0.0391 0.0449-0.069 0.0449-1.25v-1.21l0.115-0.129c0.0638-0.0706 0.16-0.174 0.215-0.23 0.0547-0.0566 0.128-0.137 0.162-0.18s0.121-0.138 0.191-0.211 0.17-0.181 0.221-0.242c0.168-0.2 0.217-0.248 0.27-0.262 0.0694-0.0178 0.164-0.141 0.182-0.236 0.0106-0.0573 0.0015-0.102-0.0352-0.174-0.0697-0.137-0.142-0.184-0.283-0.184zm4.57 0.539c-0.112-0.01-0.176 0.0696-0.176 0.229 0 0.0295-0.019 0.0623-0.0449 0.0762-0.0639 0.0342-0.131 0.154-0.131 0.232 0 0.0808 0.0645 0.194 0.141 0.244l0.0566 0.0371v5.1l0.0606-0.0117c0.0334-0.0064 0.105-0.0195 0.156-0.0273l0.0938-0.0137v-5.06l0.0566-0.0606c0.0629-0.0657 0.0971-0.183 0.0801-0.271-6e-3 -0.0316-0.0392-0.0895-0.0742-0.127-0.0402-0.043-0.063-0.0928-0.0644-0.137-0.0041-0.13-0.0295-0.178-0.104-0.199-0.018-0.0052-0.0347-0.0083-0.0508-0.0098zm2.82 0.184c-0.0763 0-0.08 4.12e-4 -0.084 0.0078-0.0023 0.0043-0.0112 0.0114-0.0195 0.0156s-0.0183 0.0129-0.0234 0.0195-0.0148 0.0194-0.0215 0.0273c-0.0083 0.0098-0.0137 0.0201-0.0156 0.0332-0.0015 0.0106-0.0074 0.0293-0.0137 0.041-0.0098 0.0182-0.0117 0.0249-0.0117 0.0508 0 0.0235 0.0022 0.0319 0.0078 0.0391 0.0109 0.014 0.0195 0.034 0.0195 0.043 0 0.0044 0.0062 0.0155 0.0137 0.0254s0.0137 0.0224 0.0137 0.0273 0.0053 0.0148 0.0117 0.0215l0.0117 0.0117v0.0742c3e-4 0.0414 0.0014 0.659 2e-3 1.37 8e-4 0.964 0.0026 1.3 0.0059 1.3 6e-3 6e-3 0.784 0.0069 1.17 2e-3 0.156-2e-3 0.291-0.0018 0.301 0 0.0522 0.12 0.17 0.156 0.326 0.154 0.155-0.0011 0.315-0.166 0.322-0.299 0.0093-0.179-0.165-0.376-0.287-0.387-0.246-0.0214-0.389 0.179-0.389 0.225 0 0.0142-0.0049 0.016-0.58 0.0176-0.409 0.0012-0.562-7.06e-4 -0.568-0.0039-0.0045-0.0024-0.0084-0.0098-0.0098-0.0156s-6e-3 -0.0146-0.0098-0.0195c-0.0065-0.0084-8e-3 -0.026-0.0059-0.311 0.0012-0.166 4.47e-4 -0.586-2e-3 -0.934-0.0024-0.348-0.0037-0.75-0.0039-0.893-3.5e-4 -0.263 3.52e-4 -0.285 0.0137-0.301 0.0028-0.0032 0.0064-0.0137 0.0078-0.0234 0.0051-0.0344 0.0064-0.0393 0.0176-0.0508l0.0117-0.0117v-0.119l-0.0117-0.0098c-0.0088-0.0072-0.0121-0.0153-0.0137-0.0273-0.0017-0.0127-0.0055-0.0176-0.0156-0.0254-0.0073-0.0055-0.0137-0.0114-0.0137-0.0137 0-0.0075-0.0294-0.0342-0.041-0.0371-0.0062-0.0015-0.0156-0.0074-0.0215-0.0137l-0.0117-0.0117zm-9.99 0.479c-0.207-0.0073-0.329 0.242-0.166 0.428 0.0638 0.0726 0.0718 0.0957 0.0606 0.164-0.0072 0.0437-0.0135 0.12-0.0137 0.172v0.0938h-0.943l-0.0859 0.0644c-0.0474 0.0346-0.172 0.14-0.275 0.236s-0.236 0.214-0.295 0.262c-0.104 0.0844-0.108 0.0867-0.137 0.0449-0.0753-0.11-0.129-0.143-0.232-0.143-0.127 0-0.201 0.0535-0.24 0.174-0.0521 0.158 0.00805 0.293 0.154 0.354 0.0727 0.0299 0.195 0.0106 0.27-0.043 0.0329-0.0236 0.0846-0.043 0.115-0.043 0.0404 0 0.144-0.0798 0.377-0.291 0.177-0.16 0.343-0.306 0.369-0.324 0.0387-0.0271 0.156-0.0371 0.602-0.0469l0.555-0.0117 0.0059-0.295c0.0058-0.276 0.0104-0.302 0.0606-0.361 0.121-0.144 0.076-0.352-0.0879-0.414-0.0324-0.0124-0.0622-0.0185-0.0918-0.0195zm10.6 0.107c-0.0959 0.0091-0.17 0.0844-0.17 0.178 0 0.0602 0.031 0.102 0.209 0.277l0.209 0.207h1l0.256 0.252 0.254 0.252-0.0059 0.104c-0.0099 0.192 0.063 0.327 0.219 0.41 0.111 0.0588 0.228 0.0537 0.355-0.0156 0.3-0.163 0.29-0.559-0.0176-0.705-0.127-0.0605-0.197-0.0667-0.283-0.0273-0.0534 0.0243-0.0631 0.0213-0.117-0.0488-0.0322-0.0418-0.155-0.179-0.275-0.303l-0.219-0.225-0.506-0.0059-0.506-0.0078-0.0703-0.0879c-0.16-0.198-0.229-0.254-0.314-0.254-0.0066 0-0.0131-6.08e-4 -0.0195 0zm2.98 0.111c-0.172 0.0147-0.272 0.226-0.119 0.389 0.0632 0.0673 0.236 0.0727 0.293 0.0098 0.102-0.112 0.0851-0.307-0.0312-0.367-0.0501-0.0259-0.0988-0.035-0.143-0.0312zm-10.9 0.0449c-0.0524 0.0028-0.103 0.0219-0.156 0.0566-0.168 0.109-0.234 0.308-0.156 0.473 0.0425 0.0896 0.0877 0.132 0.189 0.184l0.0703 0.0371v0.281c0 0.323 0.0222 0.274-0.281 0.635l-0.182 0.217v1.49l-0.0781 0.0488c-0.187 0.116-0.259 0.326-0.17 0.5 0.0465 0.0912 0.162 0.193 0.238 0.213 0.323 0.0819 0.593-0.235 0.451-0.527-0.0304-0.0627-0.0802-0.12-0.125-0.146l-0.0742-0.0449-0.0039-0.346c-0.0104-0.774-0.0091-1.06 0.0059-1.1 0.0087-0.0243 0.094-0.133 0.189-0.244 0.0955-0.111 0.194-0.227 0.219-0.256 0.0395-0.0467 0.0443-0.0874 0.0488-0.391l0.0039-0.34 0.104-0.109 0.102-0.109-0.0078-0.164c-0.0095-0.189-0.0531-0.252-0.215-0.322-0.0657-0.0285-0.12-0.0418-0.172-0.0391zm8.24 0.764c-0.0268 3.6e-5 -0.0536 0.0065-0.0801 0.0176-0.0718 0.03-0.145 0.129-0.145 0.197 0 0.0516 0.0726 0.164 0.121 0.188 0.16 0.0778 0.348-0.0652 0.311-0.236-0.0219-0.0997-0.111-0.166-0.207-0.166zm-11.2 1.98c-0.0215 0.0034-0.0432 0.0265-0.0781 0.0723-0.0601 0.0788-0.0556 0.114 0.0234 0.172 0.0604 0.0444 0.151-0.0029 0.172-0.0898 0.0088-0.0368-0.0038-0.0682-0.041-0.105-0.0348-0.0348-0.0547-0.0522-0.0762-0.0488z" fill="#fff"/><path d="m3.77 2.46v0.426l-1.19 1.06 0.136 1.81 0.723 0.666 1.78 0.00413 0.715-0.666 0.153-1.82-1.19-1.05v-0.413l0.132-0.00827 0.0785-0.136-0.0785-0.136-1.4-0.00827-0.0827 0.136 0.0785 0.141z" fill="url(#linearGradient20)"/><path d="m3.8 2.98-1.1 0.969 0.135 1.79 0.652 0.577 1.67-0.0248 0.577-0.519 0.168-1.83-1.06-0.964z" fill="#fff"/><path d="m3.55 5.98-0.0496 0.263 1.65-0.00413-0.0806-0.272" fill="#b8f1e2"/><path d="m5.72 5.74-0.579 0.499-0.0837-0.273 0.448-0.406" fill="#50cfc4"/><path d="m5.5 5.57 0.0805-1.37 0.282-0.00146-0.148 1.55" fill="#159197"/><path d="m3.55 5.98-0.427-0.4-0.211 0.137 0.585 0.522z" fill="#55cdc0"/><path d="m2.75 4.18 0.158 1.55 0.212-0.136-0.0827-1.4" fill="#59c5be"/><path d="m2.74 3.97 0.0134 0.22 0.28 0.00517 0.00413-0.225z" fill="#0e7272"/><path d="m5.6 3.97-0.0124 0.229 0.279-0.00103-0.00104-0.226z" fill="#074658"/><path d="m5.6 3.97-2.57-0.00413-0.00206 0.223 2.56 0.0114" fill="#118886"/><path d="m3.03 4.19 0.0935 1.4 0.427 0.398 1.51-0.0134 0.444-0.404 0.0894-1.37z" fill="url(#radialGradient24)"/><path d="m2.74 3.97 1.1-0.948 0.972 0.00644 1.04 0.947" fill="url(#radialGradient28)"/><path d="m3.89 2.48 0.0062 0.446 0.86-0.00206 0.00206-0.455" fill="url(#radialGradient30)"/><path d="m3.81 2.45-0.00317 0.537 1.05 0.00194 0.00234-0.542" fill="#fff"/><path d="m3.86 2.48-0.0128 0.544 0.968 0.00379 3.08e-4 -0.554" fill="url(#radialGradient30)"/><path d="m5.1 2.32-1.54-0.0142" fill="#fff"/><path d="m3.99 1.07-0.281 0.237v0.377l0.324 0.307h0.57l0.339-0.322 0.00585-0.342-0.316-0.257" fill="url(#radialGradient35)"/><path d="m4.05 1.15-0.228 0.186v0.296l0.264 0.241h0.464l0.276-0.252 0.00476-0.268-0.257-0.202" fill="#fff"/><path d="m4.13 1.34-0.255 0.00103 0.00189 0.307 0.253 0.00639" fill="#b0e9da"/><path d="m3.87 1.65 0.16 0.178 0.361 0.00121 0.159-0.189" fill="#1fa99f"/><path d="m4.39 1.83 0.159-0.186 0.209-0.00121-0.171 0.186z" fill="#7de7da"/><path d="m4.54 1.34 0.215-0.0031v0.307l-0.22 0.00278z" fill="#29b6a9"/><path d="m4.43 1.21 0.197 0.00138 0.127 0.131-0.213 0.00413z" fill="#2bbfb6"/><path d="m4.13 1.34 0.418-8.53e-4 -0.00207 0.299-0.422 0.00809z" fill="#73d6d2"/><path d="m4.44 1.2 0.112 0.145-0.681-0.0041 0.155-0.14z" fill="#fefff8"/><path d="m3.99 1.07-0.281 0.237v0.377l0.324 0.307h0.57l0.339-0.322 0.00585-0.342-0.316-0.257" fill="url(#radialGradient35)"/><path d="m4.05 1.15-0.228 0.186v0.296l0.264 0.241h0.464l0.251-0.224 0.0135-0.308-0.241-0.19" fill="#fff"/><path d="m4.13 1.34-0.255 0.00103 0.00189 0.307 0.253 0.00639" fill="#b0e9da"/><path d="m3.87 1.65 0.211 0.177 0.309 0.00267 0.159-0.189" fill="#1fa99f"/><path d="m4.39 1.83 0.159-0.186 0.209-0.00121-0.197 0.186z" fill="#7de7da"/><path d="m4.54 1.34 0.215-0.00164v0.305l-0.22 0.00278z" fill="#29b6a9"/><path d="m4.4 1.2 0.184-3e-3 0.165 0.138-0.213 0.00413z" fill="#2bbfb6"/><path d="m4.13 1.34 0.418-8.53e-4 -0.00207 0.299-0.422 0.00809z" fill="#73d6d2"/><path d="m4.41 1.21 0.139 0.141-0.681-0.0041 0.193-0.134z" fill="#fefff8"/><path d="m3.56 2.33h1.51" fill="#b0e9da" stroke="url(#linearGradient53)" stroke-width=".0307"/></svg>
